<svg width="28" height="28" viewBox="0 0 28 28" fill="none" xmlns="http://www.w3.org/2000/svg">
<path d="M19.3846 8.61539H17.2308V10.7692H19.3846V8.61539Z" fill="white"/>
<path d="M19.3846 17.2308H17.2308V19.3846H19.3846V17.2308Z" fill="white"/>
<path d="M17.2308 10.7692H15.0769V12.9231H17.2308V10.7692Z" fill="white"/>
<path d="M17.2308 15.0769H15.0769V17.2308H17.2308V15.0769Z" fill="white"/>
<path d="M10.7692 8.61539H8.61539V10.7692H10.7692V8.61539Z" fill="white"/>
<path d="M10.7692 17.2308H8.61539V19.3846H10.7692V17.2308Z" fill="white"/>
<path d="M8.61539 6.46154H6.46154V8.61539H8.61539V6.46154Z" fill="white"/>
<path d="M21.5385 6.46154H19.3846V8.61539H21.5385V6.46154Z" fill="white"/>
<path d="M12.9231 15.0769H10.7692V17.2308H12.9231V15.0769Z" fill="white"/>
<path d="M12.9231 10.7692H10.7692V12.9231H12.9231V10.7692Z" fill="white"/>
<path d="M15.0769 12.9231H12.9231V15.0769H15.0769V12.9231Z" fill="white"/>
<path d="M8.61539 19.3846H6.46154V21.5385H8.61539V19.3846Z" fill="white"/>
<path d="M21.5385 19.3846H19.3846V21.5385H21.5385V19.3846Z" fill="white"/>
<path d="M25.8462 2.15385V9.41477e-08H2.15385V2.15385L25.8462 2.15385Z" fill="white"/>
<path d="M0 25.8462H2.15385V2.15385H0V25.8462Z" fill="white"/>
<path d="M25.8462 28V25.8462H2.15385V28H25.8462Z" fill="white"/>
<path d="M28 2.15385L25.8462 2.15385V25.8462H28V2.15385Z" fill="white"/>
</svg>
