<svg width="30" height="30" viewBox="0 0 30 30" fill="none" xmlns="http://www.w3.org/2000/svg">
<path d="M1.75 26V26.25H2H3.75V28V28.25H4H26H26.25V28V26.25H28H28.25V26V8V7.75H28H2H1.75V8V26Z" stroke="white" stroke-width="0.5"/>
<path d="M2.74163 27.1333L2.74163 27.2583H2.86663H4.60836V29V29.125H4.73336H25.2667H25.3917L25.3917 29L25.3916 27.2583H27.1333H27.2583V27.1333V25.3917H28.9999H29.1249V25.2667L29.125 8.46667V8.34167H29H27.2583V6.6V6.475H27.1333H16.0583L16.0583 1L16.0583 0.875H15.9333H14.0666H13.9416L13.9416 1L13.9416 6.475H2.86663H2.74163V6.6V8.34167H1H0.875V8.46667V25.2667V25.3917H1H2.74166L2.74163 27.1333ZM2.99163 8.59167H13.9416L13.9416 15.8083H12.325L12.325 14.0667L12.325 13.9417H12.2H10.3334H10.2084V14.0667V15.9333V16.0583H10.3334H12.075V17.8V17.925H12.2H13.9416V19.6667V19.7917H14.0666H15.9333H16.0583V19.6667V17.925H17.8H17.925V17.8V16.0583H19.6666H19.7916V15.9333V14.0667V13.9417H19.6666H17.7999H17.6749L17.6749 14.0667L17.675 15.8083H16.0583L16.0583 8.59167H27.0083V25.1417H25.2666H25.1416V25.2667V27.0083H4.85836L4.85829 25.2667L4.85829 25.1417H4.73329H2.99166L2.99163 8.59167ZM15.8083 17.675H14.1916V16.0583H15.8083V17.675Z" fill="white" stroke="white" stroke-width="0.25"/>
</svg>
